{
	"asset": {
		"generator": "SOLIDWORKSGLTF",
		"version" : "2.0"
	},
"extensionsUsed": [ "KHR_lights_punctual", "Solidworks_custom_properties" ],
	"scene" : 0,
	"scenes": [
		{
			"name": "Default - Display State-1",
			"nodes": [
				0]
		}
	],
	"nodes": [
		{
			"children": [
				1, 2, 3, 4
			]
			,"name": "Simple_product_cutset"		}
,
		{
			"mesh": 0
			,"name": "Part_A-1"		}
,
		{
			"mesh": 1
			,"name": "Part_B-1"		}
,
		{
			"mesh": 2
			,"name": "Part_D-1"		}
,
		{
			"mesh": 3
			,"name": "Part_C-1"		}
	],
	"meshes" : [
		{
			"primitives" : [
				{
					"attributes" : {
					"POSITION" : 1,
					"NORMAL" : 2,
					"TEXCOORD_0" : 3
					},
					"indices" : 0,
					"mode": 4,
					"material" : 1
				}
			]
		},
		{
			"primitives" : [
				{
					"attributes" : {
					"POSITION" : 5,
					"NORMAL" : 6,
					"TEXCOORD_0" : 7
					},
					"indices" : 4,
					"mode": 4,
					"material" : 2
				}
			]
		},
		{
			"primitives" : [
				{
					"attributes" : {
					"POSITION" : 9,
					"NORMAL" : 10,
					"TEXCOORD_0" : 11
					},
					"indices" : 8,
					"mode": 4,
					"material" : 3
				}
			]
		},
		{
			"primitives" : [
				{
					"attributes" : {
					"POSITION" : 13,
					"NORMAL" : 14,
					"TEXCOORD_0" : 15
					},
					"indices" : 12,
					"mode": 4,
					"material" : 4
				}
			]
		}
	],
	"accessors" : [
			{
				"bufferView": 3
				,"byteOffset" : 0
				,"componentType" : 5123
				,"count" : 540
				,"type" : "SCALAR"
			},
			{
				"bufferView": 0
				,"byteOffset" : 0
				,"componentType" : 5126
				,"count" : 540
				,"type" : "VEC3"
				,"min" : [-4.50000018e-02, -7.00000003e-02, -4.50000018e-02]
				,"max" : [4.50000018e-02, 1.17549435e-38, 2.75545525e-18]
			},
			{
				"bufferView": 1
				,"byteOffset" : 0
				,"componentType" : 5126
				,"count" : 540
				,"type" : "VEC3"
			},
			{
				"bufferView": 2
				,"byteOffset" : 0
				,"componentType" : 5126
				,"count" : 540
				,"type" : "VEC2"
			},
			{
				"bufferView": 7
				,"byteOffset" : 0
				,"componentType" : 5123
				,"count" : 564
				,"type" : "SCALAR"
			},
			{
				"bufferView": 4
				,"byteOffset" : 0
				,"componentType" : 5126
				,"count" : 564
				,"type" : "VEC3"
				,"min" : [-4.50000018e-02, -5.00000007e-02, -4.50000018e-02]
				,"max" : [4.50000018e-02, 5.00000007e-02, 8.26636576e-18]
			},
			{
				"bufferView": 5
				,"byteOffset" : 0
				,"componentType" : 5126
				,"count" : 564
				,"type" : "VEC3"
			},
			{
				"bufferView": 6
				,"byteOffset" : 0
				,"componentType" : 5126
				,"count" : 564
				,"type" : "VEC2"
			},
			{
				"bufferView": 11
				,"byteOffset" : 0
				,"componentType" : 5123
				,"count" : 576
				,"type" : "SCALAR"
			},
			{
				"bufferView": 8
				,"byteOffset" : 0
				,"componentType" : 5126
				,"count" : 576
				,"type" : "VEC3"
				,"min" : [-2.50000004e-02, -5.99999987e-02, -2.50000004e-02]
				,"max" : [2.50000004e-02, 5.99999987e-02, 3.06161692e-18]
			},
			{
				"bufferView": 9
				,"byteOffset" : 0
				,"componentType" : 5126
				,"count" : 576
				,"type" : "VEC3"
			},
			{
				"bufferView": 10
				,"byteOffset" : 0
				,"componentType" : 5126
				,"count" : 576
				,"type" : "VEC2"
			},
			{
				"bufferView": 15
				,"byteOffset" : 0
				,"componentType" : 5123
				,"count" : 540
				,"type" : "SCALAR"
			},
			{
				"bufferView": 12
				,"byteOffset" : 0
				,"componentType" : 5126
				,"count" : 540
				,"type" : "VEC3"
				,"min" : [-4.50000018e-02, 5.00000007e-02, -4.50000018e-02]
				,"max" : [4.50000018e-02, 7.00000003e-02, 2.75545525e-18]
			},
			{
				"bufferView": 13
				,"byteOffset" : 0
				,"componentType" : 5126
				,"count" : 540
				,"type" : "VEC3"
			},
			{
				"bufferView": 14
				,"byteOffset" : 0
				,"componentType" : 5126
				,"count" : 540
				,"type" : "VEC2"
			}
	],
	"materials": [
			{
				"pbrMetallicRoughness": {
					"baseColorFactor": [
						0.498039, 0.498039, 0.498039, 1
					]
					,"metallicFactor": 0
					,"roughnessFactor": 1
				}
			},
			{
				"name": "color"
				,"pbrMetallicRoughness": {
					"baseColorFactor": [
						0.592157, 1, 0.592157, 1
					]
					,"metallicFactor": 0
					,"roughnessFactor": 0.17
				}
			},
			{
				"name": "color-1"
				,"pbrMetallicRoughness": {
					"baseColorFactor": [
						0.501961, 0.764706, 1, 1
					]
					,"metallicFactor": 0
					,"roughnessFactor": 0.17
				}
			},
			{
				"name": "color-3"
				,"pbrMetallicRoughness": {
					"baseColorFactor": [
						1, 1, 0, 1
					]
					,"metallicFactor": 0
					,"roughnessFactor": 0.17
				}
			},
			{
				"name": "color-2"
				,"pbrMetallicRoughness": {
					"baseColorFactor": [
						1, 0.501961, 0.501961, 1
					]
					,"metallicFactor": 0
					,"roughnessFactor": 0.17
				}
			}
	],
	"bufferViews" : [
			{
				"buffer": 0
				,"byteOffset" : 0
				,"byteLength" : 6480
				,"byteStride" : 12
				,"target" : 34962
			},
			{
				"buffer": 0
				,"byteOffset" : 6480
				,"byteLength" : 6480
				,"byteStride" : 12
				,"target" : 34962
			},
			{
				"buffer": 0
				,"byteOffset" : 12960
				,"byteLength" : 4320
				,"byteStride" : 8
				,"target" : 34962
			},
			{
				"buffer": 0
				,"byteOffset" : 17280
				,"byteLength" : 1080
				,"target" : 34963
			},
			{
				"buffer": 1
				,"byteOffset" : 0
				,"byteLength" : 6768
				,"byteStride" : 12
				,"target" : 34962
			},
			{
				"buffer": 1
				,"byteOffset" : 6768
				,"byteLength" : 6768
				,"byteStride" : 12
				,"target" : 34962
			},
			{
				"buffer": 1
				,"byteOffset" : 13536
				,"byteLength" : 4512
				,"byteStride" : 8
				,"target" : 34962
			},
			{
				"buffer": 1
				,"byteOffset" : 18048
				,"byteLength" : 1128
				,"target" : 34963
			},
			{
				"buffer": 2
				,"byteOffset" : 0
				,"byteLength" : 6912
				,"byteStride" : 12
				,"target" : 34962
			},
			{
				"buffer": 2
				,"byteOffset" : 6912
				,"byteLength" : 6912
				,"byteStride" : 12
				,"target" : 34962
			},
			{
				"buffer": 2
				,"byteOffset" : 13824
				,"byteLength" : 4608
				,"byteStride" : 8
				,"target" : 34962
			},
			{
				"buffer": 2
				,"byteOffset" : 18432
				,"byteLength" : 1152
				,"target" : 34963
			},
			{
				"buffer": 3
				,"byteOffset" : 0
				,"byteLength" : 6480
				,"byteStride" : 12
				,"target" : 34962
			},
			{
				"buffer": 3
				,"byteOffset" : 6480
				,"byteLength" : 6480
				,"byteStride" : 12
				,"target" : 34962
			},
			{
				"buffer": 3
				,"byteOffset" : 12960
				,"byteLength" : 4320
				,"byteStride" : 8
				,"target" : 34962
			},
			{
				"buffer": 3
				,"byteOffset" : 17280
				,"byteLength" : 1080
				,"target" : 34963
			}
	],
	"buffers" : [
			{
				"byteLength": 18360
				,"uri" : "Part_A-1.bin"
			},
			{
				"byteLength": 19176
				,"uri" : "Part_B-1.bin"
			},
			{
				"byteLength": 19584
				,"uri" : "Part_D-1.bin"
			},
			{
				"byteLength": 18360
				,"uri" : "Part_C-1.bin"
			}
	]
}
