{
	"asset": {
		"generator": "SOLIDWORKSGLTF",
		"version" : "2.0"
	},
"extensionsUsed": [ "KHR_lights_punctual", "Solidworks_custom_properties" ],
	"scene" : 0,
	"scenes": [
		{
			"name": "Default - Display State-1",
			"nodes": [
				0]
		}
	],
	"nodes": [
		{
			"children": [
				1, 2, 3, 4, 5, 6, 7
			]
			,"name": "sklop_step_motor"		}
,
		{
			"matrix": [
				1,					0,					0,					0,
				0,					1,					0,					0,
				0,					0,					1,					0,
				0,					0.0475,					0,					1
			]
			,"mesh": 0
			,"name": "gornji_lezaj_cutset-1"		}
,
		{
			"matrix": [
				1,					0,					0,					0,
				0,					1,					0,					0,
				0,					0,					1,					0,
				-0.0315952,					0.00515244,					-0.0609797,					1
			]
			,"mesh": 1
			,"name": "rotor_cutset-1"		}
,
		{
			"mesh": 2
			,"name": "donje_kuciste_cutset-1"		}
,
		{
			"matrix": [
				1,					0,					-5.55112e-17,					0,
				0,					-1,					0,					0,
				-5.55112e-17,					0,					-1,					0,
				0,					0.054,					3.46945e-18,					1
			]
			,"mesh": 3
			,"name": "gornje_kuciste_cutset-1"		}
,
		{
			"matrix": [
				1,					0,					0,					0,
				0,					0,					-1,					0,
				0,					1,					0,					0,
				-0.026,					0.052,					0.015,					1
			]
			,"mesh": 4
			,"name": "Vijci_cutset-1"		}
,
		{
			"matrix": [
				1,					0,					0,					0,
				0,					1,					0,					0,
				0,					0,					1,					0,
				0,					0.0065,					0,					1
			]
			,"mesh": 5
			,"name": "donji_lezaj_cutset-1"		}
,
		{
			"matrix": [
				-0.99995,					-0.0100321,					5.35123e-33,					0,
				-0.0100321,					0.99995,					-8.67362e-19,					0,
				8.70149e-21,					-8.67318e-19,					-1,					0,
				0.0188294,					-0.0270939,					0.022733,					1
			]
			,"mesh": 6
			,"name": "stator_cutset-1"		}
	],
	"meshes" : [
		{
			"primitives" : [
				{
					"attributes" : {
					"POSITION" : 1,
					"NORMAL" : 2,
					"TEXCOORD_0" : 3
					},
					"indices" : 0,
					"mode": 4,
					"material" : 1
				},
				{
					"attributes" : {
					"POSITION" : 5,
					"NORMAL" : 6,
					"TEXCOORD_0" : 7
					},
					"indices" : 4,
					"mode": 4,
					"material" : 2
				}
			]
		},
		{
			"primitives" : [
				{
					"attributes" : {
					"POSITION" : 9,
					"NORMAL" : 10,
					"TEXCOORD_0" : 11
					},
					"indices" : 8,
					"mode": 4,
					"material" : 3
				},
				{
					"attributes" : {
					"POSITION" : 13,
					"NORMAL" : 14,
					"TEXCOORD_0" : 15
					},
					"indices" : 12,
					"mode": 4,
					"material" : 4
				},
				{
					"attributes" : {
					"POSITION" : 17,
					"NORMAL" : 18,
					"TEXCOORD_0" : 19
					},
					"indices" : 16,
					"mode": 4,
					"material" : 5
				}
			]
		},
		{
			"primitives" : [
				{
					"attributes" : {
					"POSITION" : 21,
					"NORMAL" : 22,
					"TEXCOORD_0" : 23
					},
					"indices" : 20,
					"mode": 4,
					"material" : 6
				}
			]
		},
		{
			"primitives" : [
				{
					"attributes" : {
					"POSITION" : 25,
					"NORMAL" : 26,
					"TEXCOORD_0" : 27
					},
					"indices" : 24,
					"mode": 4,
					"material" : 7
				}
			]
		},
		{
			"primitives" : [
				{
					"attributes" : {
					"POSITION" : 29,
					"NORMAL" : 30,
					"TEXCOORD_0" : 31
					},
					"indices" : 28,
					"mode": 4,
					"material" : 8
				}
			]
		},
		{
			"primitives" : [
				{
					"attributes" : {
					"POSITION" : 33,
					"NORMAL" : 34,
					"TEXCOORD_0" : 35
					},
					"indices" : 32,
					"mode": 4,
					"material" : 9
				},
				{
					"attributes" : {
					"POSITION" : 37,
					"NORMAL" : 38,
					"TEXCOORD_0" : 39
					},
					"indices" : 36,
					"mode": 4,
					"material" : 10
				}
			]
		},
		{
			"primitives" : [
				{
					"attributes" : {
					"POSITION" : 41,
					"NORMAL" : 42,
					"TEXCOORD_0" : 43
					},
					"indices" : 40,
					"mode": 4,
					"material" : 11
				},
				{
					"attributes" : {
					"POSITION" : 45,
					"NORMAL" : 46,
					"TEXCOORD_0" : 47
					},
					"indices" : 44,
					"mode": 4,
					"material" : 12
				},
				{
					"attributes" : {
					"POSITION" : 49,
					"NORMAL" : 50,
					"TEXCOORD_0" : 51
					},
					"indices" : 48,
					"mode": 4,
					"material" : 13
				},
				{
					"attributes" : {
					"POSITION" : 53,
					"NORMAL" : 54,
					"TEXCOORD_0" : 55
					},
					"indices" : 52,
					"mode": 4,
					"material" : 14
				},
				{
					"attributes" : {
					"POSITION" : 57,
					"NORMAL" : 58,
					"TEXCOORD_0" : 59
					},
					"indices" : 56,
					"mode": 4,
					"material" : 15
				},
				{
					"attributes" : {
					"POSITION" : 61,
					"NORMAL" : 62,
					"TEXCOORD_0" : 63
					},
					"indices" : 60,
					"mode": 4,
					"material" : 15
				},
				{
					"attributes" : {
					"POSITION" : 65,
					"NORMAL" : 66,
					"TEXCOORD_0" : 67
					},
					"indices" : 64,
					"mode": 4,
					"material" : 15
				},
				{
					"attributes" : {
					"POSITION" : 69,
					"NORMAL" : 70,
					"TEXCOORD_0" : 71
					},
					"indices" : 68,
					"mode": 4,
					"material" : 15
				},
				{
					"attributes" : {
					"POSITION" : 73,
					"NORMAL" : 74,
					"TEXCOORD_0" : 75
					},
					"indices" : 72,
					"mode": 4,
					"material" : 15
				},
				{
					"attributes" : {
					"POSITION" : 77,
					"NORMAL" : 78,
					"TEXCOORD_0" : 79
					},
					"indices" : 76,
					"mode": 4,
					"material" : 15
				},
				{
					"attributes" : {
					"POSITION" : 81,
					"NORMAL" : 82,
					"TEXCOORD_0" : 83
					},
					"indices" : 80,
					"mode": 4,
					"material" : 15
				},
				{
					"attributes" : {
					"POSITION" : 85,
					"NORMAL" : 86,
					"TEXCOORD_0" : 87
					},
					"indices" : 84,
					"mode": 4,
					"material" : 15
				},
				{
					"attributes" : {
					"POSITION" : 89,
					"NORMAL" : 90,
					"TEXCOORD_0" : 91
					},
					"indices" : 88,
					"mode": 4,
					"material" : 15
				},
				{
					"attributes" : {
					"POSITION" : 93,
					"NORMAL" : 94,
					"TEXCOORD_0" : 95
					},
					"indices" : 92,
					"mode": 4,
					"material" : 15
				},
				{
					"attributes" : {
					"POSITION" : 97,
					"NORMAL" : 98,
					"TEXCOORD_0" : 99
					},
					"indices" : 96,
					"mode": 4,
					"material" : 15
				},
				{
					"attributes" : {
					"POSITION" : 101,
					"NORMAL" : 102,
					"TEXCOORD_0" : 103
					},
					"indices" : 100,
					"mode": 4,
					"material" : 15
				}
			]
		}
	],
	"accessors" : [
			{
				"bufferView": 3
				,"byteOffset" : 0
				,"componentType" : 5123
				,"count" : 47403
				,"type" : "SCALAR"
			},
			{
				"bufferView": 0
				,"byteOffset" : 0
				,"componentType" : 5126
				,"count" : 47403
				,"type" : "VEC3"
				,"min" : [-1.09999999e-02, -3.50000011e-03, -1.09951692e-02]
				,"max" : [1.09999999e-02, 3.50000011e-03, 1.09951692e-02]
			},
			{
				"bufferView": 1
				,"byteOffset" : 0
				,"componentType" : 5126
				,"count" : 47403
				,"type" : "VEC3"
			},
			{
				"bufferView": 2
				,"byteOffset" : 0
				,"componentType" : 5126
				,"count" : 47403
				,"type" : "VEC2"
			},
			{
				"bufferView": 3
				,"byteOffset" : 94806
				,"componentType" : 5123
				,"count" : 717
				,"type" : "SCALAR"
			},
			{
				"bufferView": 0
				,"byteOffset" : 568836
				,"componentType" : 5126
				,"count" : 717
				,"type" : "VEC3"
				,"min" : [-8.23278259e-03, 3.38999997e-03, -6.78692851e-03]
				,"max" : [1.17549435e-38, 3.38999997e-03, 6.42582867e-03]
			},
			{
				"bufferView": 1
				,"byteOffset" : 568836
				,"componentType" : 5126
				,"count" : 717
				,"type" : "VEC3"
			},
			{
				"bufferView": 2
				,"byteOffset" : 379224
				,"componentType" : 5126
				,"count" : 717
				,"type" : "VEC2"
			},
			{
				"bufferView": 7
				,"byteOffset" : 0
				,"componentType" : 5123
				,"count" : 3504
				,"type" : "SCALAR"
			},
			{
				"bufferView": 4
				,"byteOffset" : 0
				,"componentType" : 5126
				,"count" : 3504
				,"type" : "VEC3"
				,"min" : [2.75952294e-02, -1.85244298e-03, 5.69797009e-02]
				,"max" : [3.55952308e-02, 7.61475563e-02, 6.49797022e-02]
			},
			{
				"bufferView": 5
				,"byteOffset" : 0
				,"componentType" : 5126
				,"count" : 3504
				,"type" : "VEC3"
			},
			{
				"bufferView": 6
				,"byteOffset" : 0
				,"componentType" : 5126
				,"count" : 3504
				,"type" : "VEC2"
			},
			{
				"bufferView": 7
				,"byteOffset" : 7008
				,"componentType" : 5123
				,"count" : 7980
				,"type" : "SCALAR"
			},
			{
				"bufferView": 4
				,"byteOffset" : 42048
				,"componentType" : 5126
				,"count" : 7980
				,"type" : "VEC3"
				,"min" : [1.35902278e-02, 8.14755727e-03, 4.29797024e-02]
				,"max" : [4.96002324e-02, 3.51475552e-02, 7.89797008e-02]
			},
			{
				"bufferView": 5
				,"byteOffset" : 42048
				,"componentType" : 5126
				,"count" : 7980
				,"type" : "VEC3"
			},
			{
				"bufferView": 6
				,"byteOffset" : 28032
				,"componentType" : 5126
				,"count" : 7980
				,"type" : "VEC2"
			},
			{
				"bufferView": 7
				,"byteOffset" : 22968
				,"componentType" : 5123
				,"count" : 2448
				,"type" : "SCALAR"
			},
			{
				"bufferView": 4
				,"byteOffset" : 137808
				,"componentType" : 5126
				,"count" : 2448
				,"type" : "VEC3"
				,"min" : [2.69961003e-02, 4.84755682e-03, 5.63797019e-02]
				,"max" : [3.61943580e-02, 3.88475582e-02, 6.55797049e-02]
			},
			{
				"bufferView": 5
				,"byteOffset" : 137808
				,"componentType" : 5126
				,"count" : 2448
				,"type" : "VEC3"
			},
			{
				"bufferView": 6
				,"byteOffset" : 91872
				,"componentType" : 5126
				,"count" : 2448
				,"type" : "VEC2"
			},
			{
				"bufferView": 11
				,"byteOffset" : 0
				,"componentType" : 5123
				,"count" : 10878
				,"type" : "SCALAR"
			},
			{
				"bufferView": 8
				,"byteOffset" : 0
				,"componentType" : 5126
				,"count" : 10878
				,"type" : "VEC3"
				,"min" : [-2.80000009e-02, 0.00000000e+00, -2.80000009e-02]
				,"max" : [2.80000009e-02, 1.30000003e-02, 2.80000009e-02]
			},
			{
				"bufferView": 9
				,"byteOffset" : 0
				,"componentType" : 5126
				,"count" : 10878
				,"type" : "VEC3"
			},
			{
				"bufferView": 10
				,"byteOffset" : 0
				,"componentType" : 5126
				,"count" : 10878
				,"type" : "VEC2"
			},
			{
				"bufferView": 15
				,"byteOffset" : 0
				,"componentType" : 5123
				,"count" : 10716
				,"type" : "SCALAR"
			},
			{
				"bufferView": 12
				,"byteOffset" : 0
				,"componentType" : 5126
				,"count" : 10716
				,"type" : "VEC3"
				,"min" : [-2.80000009e-02, -1.00000005e-03, -2.80000009e-02]
				,"max" : [2.80000009e-02, 1.30000003e-02, 2.80000009e-02]
			},
			{
				"bufferView": 13
				,"byteOffset" : 0
				,"componentType" : 5126
				,"count" : 10716
				,"type" : "VEC3"
			},
			{
				"bufferView": 14
				,"byteOffset" : 0
				,"componentType" : 5126
				,"count" : 10716
				,"type" : "VEC2"
			},
			{
				"bufferView": 19
				,"byteOffset" : 0
				,"componentType" : 5123
				,"count" : 13128
				,"type" : "SCALAR"
			},
			{
				"bufferView": 16
				,"byteOffset" : 0
				,"componentType" : 5126
				,"count" : 13128
				,"type" : "VEC3"
				,"min" : [-2.00000009e-03, -2.00000009e-03, -5.00000007e-02]
				,"max" : [5.40000014e-02, 3.20000015e-02, 1.56685372e-03]
			},
			{
				"bufferView": 17
				,"byteOffset" : 0
				,"componentType" : 5126
				,"count" : 13128
				,"type" : "VEC3"
			},
			{
				"bufferView": 18
				,"byteOffset" : 0
				,"componentType" : 5126
				,"count" : 13128
				,"type" : "VEC2"
			},
			{
				"bufferView": 23
				,"byteOffset" : 0
				,"componentType" : 5123
				,"count" : 717
				,"type" : "SCALAR"
			},
			{
				"bufferView": 20
				,"byteOffset" : 0
				,"componentType" : 5126
				,"count" : 717
				,"type" : "VEC3"
				,"min" : [-8.23278259e-03, 3.38999997e-03, -6.78692851e-03]
				,"max" : [1.17549435e-38, 3.38999997e-03, 6.42582867e-03]
			},
			{
				"bufferView": 21
				,"byteOffset" : 0
				,"componentType" : 5126
				,"count" : 717
				,"type" : "VEC3"
			},
			{
				"bufferView": 22
				,"byteOffset" : 0
				,"componentType" : 5126
				,"count" : 717
				,"type" : "VEC2"
			},
			{
				"bufferView": 23
				,"byteOffset" : 1434
				,"componentType" : 5123
				,"count" : 47403
				,"type" : "SCALAR"
			},
			{
				"bufferView": 20
				,"byteOffset" : 8604
				,"componentType" : 5126
				,"count" : 47403
				,"type" : "VEC3"
				,"min" : [-1.09999999e-02, -3.50000011e-03, -1.09951692e-02]
				,"max" : [1.09999999e-02, 3.50000011e-03, 1.09951692e-02]
			},
			{
				"bufferView": 21
				,"byteOffset" : 8604
				,"componentType" : 5126
				,"count" : 47403
				,"type" : "VEC3"
			},
			{
				"bufferView": 22
				,"byteOffset" : 5736
				,"componentType" : 5126
				,"count" : 47403
				,"type" : "VEC2"
			},
			{
				"bufferView": 27
				,"byteOffset" : 0
				,"componentType" : 5123
				,"count" : 4176
				,"type" : "SCALAR"
			},
			{
				"bufferView": 24
				,"byteOffset" : 0
				,"componentType" : 5126
				,"count" : 4176
				,"type" : "VEC3"
				,"min" : [-9.87332314e-03, 3.79999354e-02, -5.26697375e-03]
				,"max" : [4.64448854e-02, 7.05601275e-02, 5.07330261e-02]
			},
			{
				"bufferView": 25
				,"byteOffset" : 0
				,"componentType" : 5126
				,"count" : 4176
				,"type" : "VEC3"
			},
			{
				"bufferView": 26
				,"byteOffset" : 0
				,"componentType" : 5126
				,"count" : 4176
				,"type" : "VEC2"
			},
			{
				"bufferView": 27
				,"byteOffset" : 8352
				,"componentType" : 5123
				,"count" : 2700
				,"type" : "SCALAR"
			},
			{
				"bufferView": 24
				,"byteOffset" : 50112
				,"componentType" : 5126
				,"count" : 2700
				,"type" : "VEC3"
				,"min" : [-8.86681722e-04, 3.90899442e-02, 3.85933020e-03]
				,"max" : [3.74597609e-02, 6.94701299e-02, 4.19067219e-02]
			},
			{
				"bufferView": 25
				,"byteOffset" : 50112
				,"componentType" : 5126
				,"count" : 2700
				,"type" : "VEC3"
			},
			{
				"bufferView": 26
				,"byteOffset" : 33408
				,"componentType" : 5126
				,"count" : 2700
				,"type" : "VEC2"
			},
			{
				"bufferView": 27
				,"byteOffset" : 13752
				,"componentType" : 5123
				,"count" : 2712
				,"type" : "SCALAR"
			},
			{
				"bufferView": 24
				,"byteOffset" : 82512
				,"componentType" : 5126
				,"count" : 2712
				,"type" : "VEC3"
				,"min" : [-7.27210240e-03, 3.20872962e-02, -1.16169732e-02]
				,"max" : [4.38451804e-02, 7.64727816e-02, 4.80815098e-02]
			},
			{
				"bufferView": 25
				,"byteOffset" : 82512
				,"componentType" : 5126
				,"count" : 2712
				,"type" : "VEC3"
			},
			{
				"bufferView": 26
				,"byteOffset" : 55008
				,"componentType" : 5126
				,"count" : 2712
				,"type" : "VEC2"
			},
			{
				"bufferView": 27
				,"byteOffset" : 19176
				,"componentType" : 5123
				,"count" : 1728
				,"type" : "SCALAR"
			},
			{
				"bufferView": 24
				,"byteOffset" : 115056
				,"componentType" : 5126
				,"count" : 1728
				,"type" : "VEC3"
				,"min" : [6.47022482e-03, 3.58115733e-02, -1.16169732e-02]
				,"max" : [3.16689648e-02, 3.62623781e-02, 1.17549435e-38]
			},
			{
				"bufferView": 25
				,"byteOffset" : 115056
				,"componentType" : 5126
				,"count" : 1728
				,"type" : "VEC3"
			},
			{
				"bufferView": 26
				,"byteOffset" : 76704
				,"componentType" : 5126
				,"count" : 1728
				,"type" : "VEC2"
			},
			{
				"bufferView": 27
				,"byteOffset" : 22632
				,"componentType" : 5123
				,"count" : 64998
				,"type" : "SCALAR"
			},
			{
				"bufferView": 24
				,"byteOffset" : 135792
				,"componentType" : 5126
				,"count" : 64998
				,"type" : "VEC3"
				,"min" : [1.14257056e-02, 3.40651162e-02, -1.52409018e-03]
				,"max" : [2.52145212e-02, 7.55445361e-02, 2.22590985e-03]
			},
			{
				"bufferView": 25
				,"byteOffset" : 135792
				,"componentType" : 5126
				,"count" : 64998
				,"type" : "VEC3"
			},
			{
				"bufferView": 26
				,"byteOffset" : 90528
				,"componentType" : 5126
				,"count" : 64998
				,"type" : "VEC2"
			},
			{
				"bufferView": 27
				,"byteOffset" : 152628
				,"componentType" : 5123
				,"count" : 64998
				,"type" : "SCALAR"
			},
			{
				"bufferView": 24
				,"byteOffset" : 915768
				,"componentType" : 5126
				,"count" : 64998
				,"type" : "VEC3"
				,"min" : [1.14257056e-02, 3.40651162e-02, 8.95183941e-04]
				,"max" : [4.03798223e-02, 7.57236108e-02, 1.16470577e-02]
			},
			{
				"bufferView": 25
				,"byteOffset" : 915768
				,"componentType" : 5126
				,"count" : 64998
				,"type" : "VEC3"
			},
			{
				"bufferView": 26
				,"byteOffset" : 610512
				,"componentType" : 5126
				,"count" : 64998
				,"type" : "VEC2"
			},
			{
				"bufferView": 27
				,"byteOffset" : 282624
				,"componentType" : 5123
				,"count" : 64998
				,"type" : "SCALAR"
			},
			{
				"bufferView": 24
				,"byteOffset" : 1695744
				,"componentType" : 5126
				,"count" : 64998
				,"type" : "VEC3"
				,"min" : [2.72166617e-02, 3.41966227e-02, 2.30939756e-03]
				,"max" : [4.29552682e-02, 7.57094249e-02, 2.95204520e-02]
			},
			{
				"bufferView": 25
				,"byteOffset" : 1695744
				,"componentType" : 5126
				,"count" : 64998
				,"type" : "VEC3"
			},
			{
				"bufferView": 26
				,"byteOffset" : 1130496
				,"componentType" : 5126
				,"count" : 64998
				,"type" : "VEC2"
			},
			{
				"bufferView": 27
				,"byteOffset" : 412620
				,"componentType" : 5123
				,"count" : 64998
				,"type" : "SCALAR"
			},
			{
				"bufferView": 24
				,"byteOffset" : 2475720
				,"componentType" : 5126
				,"count" : 64998
				,"type" : "VEC3"
				,"min" : [3.86061147e-02, 3.42646390e-02, 1.60217602e-02]
				,"max" : [4.28950749e-02, 7.57950693e-02, 2.95204520e-02]
			},
			{
				"bufferView": 25
				,"byteOffset" : 2475720
				,"componentType" : 5126
				,"count" : 64998
				,"type" : "VEC3"
			},
			{
				"bufferView": 26
				,"byteOffset" : 1650480
				,"componentType" : 5126
				,"count" : 64998
				,"type" : "VEC2"
			},
			{
				"bufferView": 27
				,"byteOffset" : 542616
				,"componentType" : 5123
				,"count" : 64998
				,"type" : "SCALAR"
			},
			{
				"bufferView": 24
				,"byteOffset" : 3255696
				,"componentType" : 5126
				,"count" : 64998
				,"type" : "VEC3"
				,"min" : [2.93710083e-02, 3.42187770e-02, 1.60217602e-02]
				,"max" : [4.04761024e-02, 7.57599548e-02, 4.46867235e-02]
			},
			{
				"bufferView": 25
				,"byteOffset" : 3255696
				,"componentType" : 5126
				,"count" : 64998
				,"type" : "VEC3"
			},
			{
				"bufferView": 26
				,"byteOffset" : 2170464
				,"componentType" : 5126
				,"count" : 64998
				,"type" : "VEC2"
			},
			{
				"bufferView": 27
				,"byteOffset" : 672612
				,"componentType" : 5123
				,"count" : 64998
				,"type" : "SCALAR"
			},
			{
				"bufferView": 24
				,"byteOffset" : 4035672
				,"componentType" : 5126
				,"count" : 64998
				,"type" : "VEC3"
				,"min" : [1.15631148e-02, 3.40587385e-02, 3.18135284e-02]
				,"max" : [3.90619598e-02, 7.57104754e-02, 4.72018309e-02]
			},
			{
				"bufferView": 25
				,"byteOffset" : 4035672
				,"componentType" : 5126
				,"count" : 64998
				,"type" : "VEC3"
			},
			{
				"bufferView": 26
				,"byteOffset" : 2690448
				,"componentType" : 5126
				,"count" : 64998
				,"type" : "VEC2"
			},
			{
				"bufferView": 27
				,"byteOffset" : 802608
				,"componentType" : 5123
				,"count" : 64998
				,"type" : "SCALAR"
			},
			{
				"bufferView": 24
				,"byteOffset" : 4815648
				,"componentType" : 5126
				,"count" : 64998
				,"type" : "VEC3"
				,"min" : [1.15631148e-02, 3.40587385e-02, 4.32032086e-02]
				,"max" : [2.53481567e-02, 7.55536333e-02, 4.72018309e-02]
			},
			{
				"bufferView": 25
				,"byteOffset" : 4815648
				,"componentType" : 5126
				,"count" : 64998
				,"type" : "VEC3"
			},
			{
				"bufferView": 26
				,"byteOffset" : 3210432
				,"componentType" : 5126
				,"count" : 64998
				,"type" : "VEC2"
			},
			{
				"bufferView": 27
				,"byteOffset" : 932604
				,"componentType" : 5123
				,"count" : 64998
				,"type" : "SCALAR"
			},
			{
				"bufferView": 24
				,"byteOffset" : 5595624
				,"componentType" : 5126
				,"count" : 64998
				,"type" : "VEC3"
				,"min" : [-3.60452384e-03, 3.38873155e-02, 3.36771309e-02]
				,"max" : [2.53481567e-02, 7.55536333e-02, 4.47825566e-02]
			},
			{
				"bufferView": 25
				,"byteOffset" : 5595624
				,"componentType" : 5126
				,"count" : 64998
				,"type" : "VEC3"
			},
			{
				"bufferView": 26
				,"byteOffset" : 3730416
				,"componentType" : 5126
				,"count" : 64998
				,"type" : "VEC2"
			},
			{
				"bufferView": 27
				,"byteOffset" : 1062600
				,"componentType" : 5123
				,"count" : 64998
				,"type" : "SCALAR"
			},
			{
				"bufferView": 24
				,"byteOffset" : 6375600
				,"componentType" : 5126
				,"count" : 64998
				,"type" : "VEC3"
				,"min" : [-6.17952086e-03, 3.38159427e-02, 1.61572900e-02]
				,"max" : [9.55878478e-03, 7.54144788e-02, 4.33681123e-02]
			},
			{
				"bufferView": 25
				,"byteOffset" : 6375600
				,"componentType" : 5126
				,"count" : 64998
				,"type" : "VEC3"
			},
			{
				"bufferView": 26
				,"byteOffset" : 4250400
				,"componentType" : 5126
				,"count" : 64998
				,"type" : "VEC2"
			},
			{
				"bufferView": 27
				,"byteOffset" : 1192596
				,"componentType" : 5123
				,"count" : 64998
				,"type" : "SCALAR"
			},
			{
				"bufferView": 24
				,"byteOffset" : 7155576
				,"componentType" : 5126
				,"count" : 64998
				,"type" : "VEC3"
				,"min" : [-5.67954592e-03, 3.38209607e-02, 1.61572900e-02]
				,"max" : [1.17549435e-38, 7.53463730e-02, 2.96559799e-02]
			},
			{
				"bufferView": 25
				,"byteOffset" : 7155576
				,"componentType" : 5126
				,"count" : 64998
				,"type" : "VEC3"
			},
			{
				"bufferView": 26
				,"byteOffset" : 4770384
				,"componentType" : 5126
				,"count" : 64998
				,"type" : "VEC2"
			},
			{
				"bufferView": 27
				,"byteOffset" : 1322592
				,"componentType" : 5123
				,"count" : 64998
				,"type" : "SCALAR"
			},
			{
				"bufferView": 24
				,"byteOffset" : 7935552
				,"componentType" : 5126
				,"count" : 64998
				,"type" : "VEC3"
				,"min" : [-3.69990291e-03, 3.38560715e-02, 9.91017558e-04]
				,"max" : [7.69557990e-03, 7.53953084e-02, 2.96559799e-02]
			},
			{
				"bufferView": 25
				,"byteOffset" : 7935552
				,"componentType" : 5126
				,"count" : 64998
				,"type" : "VEC3"
			},
			{
				"bufferView": 26
				,"byteOffset" : 5290368
				,"componentType" : 5126
				,"count" : 64998
				,"type" : "VEC2"
			},
			{
				"bufferView": 27
				,"byteOffset" : 1452588
				,"componentType" : 5123
				,"count" : 50622
				,"type" : "SCALAR"
			},
			{
				"bufferView": 24
				,"byteOffset" : 8715528
				,"componentType" : 5126
				,"count" : 50622
				,"type" : "VEC3"
				,"min" : [-2.26121442e-03, 3.39041762e-02, 2.40523112e-03]
				,"max" : [9.46325809e-03, 7.54134282e-02, 1.38642117e-02]
			},
			{
				"bufferView": 25
				,"byteOffset" : 8715528
				,"componentType" : 5126
				,"count" : 50622
				,"type" : "VEC3"
			},
			{
				"bufferView": 26
				,"byteOffset" : 5810352
				,"componentType" : 5126
				,"count" : 50622
				,"type" : "VEC2"
			}
	],
	"materials": [
			{
				"pbrMetallicRoughness": {
					"baseColorFactor": [
						0.498039, 0.498039, 0.498039, 1
					]
					,"metallicFactor": 0
					,"roughnessFactor": 1
				}
			},
			{
				"name": "color-9"
				,"pbrMetallicRoughness": {
					"baseColorFactor": [
						0.952941, 0.796078, 0.486275, 1
					]
					,"metallicFactor": 0
					,"roughnessFactor": 0.18
				}
			},
			{
				"name": "color-11"
				,"pbrMetallicRoughness": {
					"baseColorFactor": [
						0.34902, 0.34902, 0.34902, 1
					]
					,"metallicFactor": 0
					,"roughnessFactor": 0.18
				}
			},
			{
				"name": "color-13"
				,"pbrMetallicRoughness": {
					"baseColorFactor": [
						0.666667, 0.752941, 0.752941, 1
					]
					,"metallicFactor": 0
					,"roughnessFactor": 0.17
				}
			},
			{
				"name": "color-15"
				,"pbrMetallicRoughness": {
					"baseColorFactor": [
						0, 0.494118, 0.117647, 1
					]
					,"metallicFactor": 0
					,"roughnessFactor": 0.188
				}
			},
			{
				"name": "color-14"
				,"pbrMetallicRoughness": {
					"baseColorFactor": [
						0.25098, 0.25098, 0.25098, 1
					]
					,"metallicFactor": 0
					,"roughnessFactor": 0.188
				}
			},
			{
				"name": "color"
				,"pbrMetallicRoughness": {
					"baseColorFactor": [
						1, 1, 1, 1
					]
					,"metallicFactor": 0
					,"roughnessFactor": 0.188
				}
			},
			{
				"name": "color-12"
				,"pbrMetallicRoughness": {
					"baseColorFactor": [
						1, 1, 1, 1
					]
					,"metallicFactor": 0
					,"roughnessFactor": 0.188
				}
			},
			{
				"name": "color-18"
				,"pbrMetallicRoughness": {
					"baseColorFactor": [
						0.792157, 0.819608, 0.933333, 1
					]
					,"metallicFactor": 0
					,"roughnessFactor": 0.17
				}
			},
			{
				"name": "color-2"
				,"pbrMetallicRoughness": {
					"baseColorFactor": [
						0.34902, 0.34902, 0.34902, 1
					]
					,"metallicFactor": 0
					,"roughnessFactor": 0.18
				}
			},
			{
				"name": "color-1"
				,"pbrMetallicRoughness": {
					"baseColorFactor": [
						0.952941, 0.796078, 0.486275, 1
					]
					,"metallicFactor": 0
					,"roughnessFactor": 0.18
				}
			},
			{
				"name": "color-5"
				,"pbrMetallicRoughness": {
					"baseColorFactor": [
						0.25098, 0.25098, 0.25098, 1
					]
					,"metallicFactor": 0
					,"roughnessFactor": 0.188
				}
			},
			{
				"name": "color-6"
				,"pbrMetallicRoughness": {
					"baseColorFactor": [
						0, 0.0431373, 0.0941176, 1
					]
					,"metallicFactor": 0
					,"roughnessFactor": 0.188
				}
			},
			{
				"name": "color-4"
				,"pbrMetallicRoughness": {
					"baseColorFactor": [
						0.572549, 0.00784314, 1, 1
					]
					,"metallicFactor": 0
					,"roughnessFactor": 0.188
				}
			},
			{
				"name": "color-7"
				,"pbrMetallicRoughness": {
					"baseColorFactor": [
						1, 1, 1, 1
					]
					,"metallicFactor": 0
					,"roughnessFactor": 0.188
				}
			},
			{
				"name": "color-8"
				,"pbrMetallicRoughness": {
					"baseColorFactor": [
						1, 0.505882, 0.247059, 1
					]
					,"metallicFactor": 0
					,"roughnessFactor": 0.188
				}
			}
	],
	"bufferViews" : [
			{
				"buffer": 0
				,"byteOffset" : 0
				,"byteLength" : 577440
				,"byteStride" : 12
				,"target" : 34962
			},
			{
				"buffer": 0
				,"byteOffset" : 577440
				,"byteLength" : 577440
				,"byteStride" : 12
				,"target" : 34962
			},
			{
				"buffer": 0
				,"byteOffset" : 1154880
				,"byteLength" : 384960
				,"byteStride" : 8
				,"target" : 34962
			},
			{
				"buffer": 0
				,"byteOffset" : 1539840
				,"byteLength" : 96240
				,"target" : 34963
			},
			{
				"buffer": 1
				,"byteOffset" : 0
				,"byteLength" : 167184
				,"byteStride" : 12
				,"target" : 34962
			},
			{
				"buffer": 1
				,"byteOffset" : 167184
				,"byteLength" : 167184
				,"byteStride" : 12
				,"target" : 34962
			},
			{
				"buffer": 1
				,"byteOffset" : 334368
				,"byteLength" : 111456
				,"byteStride" : 8
				,"target" : 34962
			},
			{
				"buffer": 1
				,"byteOffset" : 445824
				,"byteLength" : 27864
				,"target" : 34963
			},
			{
				"buffer": 2
				,"byteOffset" : 0
				,"byteLength" : 130536
				,"byteStride" : 12
				,"target" : 34962
			},
			{
				"buffer": 2
				,"byteOffset" : 130536
				,"byteLength" : 130536
				,"byteStride" : 12
				,"target" : 34962
			},
			{
				"buffer": 2
				,"byteOffset" : 261072
				,"byteLength" : 87024
				,"byteStride" : 8
				,"target" : 34962
			},
			{
				"buffer": 2
				,"byteOffset" : 348096
				,"byteLength" : 21756
				,"target" : 34963
			},
			{
				"buffer": 3
				,"byteOffset" : 0
				,"byteLength" : 128592
				,"byteStride" : 12
				,"target" : 34962
			},
			{
				"buffer": 3
				,"byteOffset" : 128592
				,"byteLength" : 128592
				,"byteStride" : 12
				,"target" : 34962
			},
			{
				"buffer": 3
				,"byteOffset" : 257184
				,"byteLength" : 85728
				,"byteStride" : 8
				,"target" : 34962
			},
			{
				"buffer": 3
				,"byteOffset" : 342912
				,"byteLength" : 21432
				,"target" : 34963
			},
			{
				"buffer": 4
				,"byteOffset" : 0
				,"byteLength" : 157536
				,"byteStride" : 12
				,"target" : 34962
			},
			{
				"buffer": 4
				,"byteOffset" : 157536
				,"byteLength" : 157536
				,"byteStride" : 12
				,"target" : 34962
			},
			{
				"buffer": 4
				,"byteOffset" : 315072
				,"byteLength" : 105024
				,"byteStride" : 8
				,"target" : 34962
			},
			{
				"buffer": 4
				,"byteOffset" : 420096
				,"byteLength" : 26256
				,"target" : 34963
			},
			{
				"buffer": 5
				,"byteOffset" : 0
				,"byteLength" : 577440
				,"byteStride" : 12
				,"target" : 34962
			},
			{
				"buffer": 5
				,"byteOffset" : 577440
				,"byteLength" : 577440
				,"byteStride" : 12
				,"target" : 34962
			},
			{
				"buffer": 5
				,"byteOffset" : 1154880
				,"byteLength" : 384960
				,"byteStride" : 8
				,"target" : 34962
			},
			{
				"buffer": 5
				,"byteOffset" : 1539840
				,"byteLength" : 96240
				,"target" : 34963
			},
			{
				"buffer": 6
				,"byteOffset" : 0
				,"byteLength" : 9322992
				,"byteStride" : 12
				,"target" : 34962
			},
			{
				"buffer": 6
				,"byteOffset" : 9322992
				,"byteLength" : 9322992
				,"byteStride" : 12
				,"target" : 34962
			},
			{
				"buffer": 6
				,"byteOffset" : 18645984
				,"byteLength" : 6215328
				,"byteStride" : 8
				,"target" : 34962
			},
			{
				"buffer": 6
				,"byteOffset" : 24861312
				,"byteLength" : 1553832
				,"target" : 34963
			}
	],
	"buffers" : [
			{
				"byteLength": 1636080
				,"uri" : "gornji_lezaj_cutset-1.bin"
			},
			{
				"byteLength": 473688
				,"uri" : "rotor_cutset-1.bin"
			},
			{
				"byteLength": 369852
				,"uri" : "donje_kuciste_cutset-1.bin"
			},
			{
				"byteLength": 364344
				,"uri" : "gornje_kuciste_cutset-1.bin"
			},
			{
				"byteLength": 446352
				,"uri" : "Vijci_cutset-1.bin"
			},
			{
				"byteLength": 1636080
				,"uri" : "donji_lezaj_cutset-1.bin"
			},
			{
				"byteLength": 26415144
				,"uri" : "stator_cutset-1.bin"
			}
	]
}
